<svg width="414" height="224" viewBox="0 0 414 224" fill="none" xmlns="http://www.w3.org/2000/svg">
<path d="M413.972 58.9755C367.451 73.0645 275.379 101.229 222.43 119.337C226.89 78.4515 242.407 38.6018 277.124 7.20543C278.621 5.85178 278.925 3.61412 277.831 1.91515C276.736 0.216189 274.575 -0.460635 272.719 0.326691C250.719 9.53978 225.394 21.1701 203.09 42.7456C178.43 66.614 162.526 98.4523 155.751 137.515C130.426 102.651 94.4896 81.2417 43.5492 70.4815C41.6235 70.081 39.684 71.0617 38.8943 72.8573C38.0908 74.6392 38.6588 76.7387 40.252 77.899C73.321 101.85 93.1458 135.346 101.888 166.466C64.5516 178.456 31.9951 185.845 14.4978 189.865C-6.62929 194.727 -3.58146 216.883 16.6174 217.394C28.6148 217.698 59.3425 219.093 105.85 218.734C105.836 218.816 105.822 218.899 105.808 218.982H114.259C114.273 218.872 114.287 218.761 114.301 218.651C114.633 216.523 114.896 214.341 115.09 212.117C115.104 211.951 115.118 211.772 115.132 211.592C115.215 210.653 115.27 209.7 115.326 208.733C115.34 208.36 115.353 208.001 115.381 207.628C115.409 206.855 115.45 206.095 115.464 205.308C115.464 204.824 115.478 204.341 115.492 203.871C115.492 203.208 115.492 202.545 115.492 201.868C115.492 201.288 115.492 200.722 115.464 200.142C115.464 199.575 115.437 199.023 115.409 198.456C115.381 197.78 115.353 197.089 115.326 196.398C115.298 195.984 115.27 195.57 115.257 195.155C115.201 194.313 115.16 193.484 115.09 192.641C115.09 192.572 115.076 192.489 115.076 192.42C114.134 180.942 111.655 168.773 107.609 156.59C98.2994 128.481 81.5363 102.9 59.6473 83.0097C102.843 95.3306 133.336 117.182 154.768 150.872C155.71 152.35 157.483 153.082 159.187 152.695C160.891 152.322 162.179 150.913 162.401 149.173C162.637 147.28 162.927 145.429 163.205 143.592C175.147 65.0946 221.28 33.3806 256.371 16.6119C229.453 47.8148 217.207 84.833 213.743 122.39C213.549 124.434 213.397 126.478 213.258 128.523C213.217 129.199 213.189 129.862 213.148 130.539C213.064 131.962 212.981 133.385 212.926 134.821C212.884 135.65 212.87 136.479 212.843 137.308C212.801 138.578 212.76 139.863 212.732 141.134C212.718 142.004 212.704 142.874 212.704 143.744C212.704 144.987 212.69 146.217 212.704 147.46C212.704 148.33 212.704 149.214 212.732 150.084C212.746 151.327 212.773 152.571 212.801 153.814C212.829 154.67 212.843 155.513 212.87 156.369C212.912 157.654 212.967 158.924 213.037 160.195C213.078 160.996 213.106 161.811 213.161 162.612C213.231 163.98 213.328 165.347 213.425 166.729C213.466 167.433 213.508 168.124 213.563 168.828C213.688 170.527 213.84 172.212 213.993 173.897C214.02 174.27 214.048 174.643 214.09 175.002C214.159 175.693 214.228 176.37 214.297 177.047L274.395 158.607C276.598 157.93 278.912 159.159 279.59 161.342C280.269 163.524 279.036 165.845 276.847 166.521L196.828 191.067L188.335 195.652C175.133 202.545 179.566 222.422 194.459 223.057C237.364 224.908 291.297 223.609 301.452 222.753C361.66 217.629 347.238 193.304 373.796 180.472C374.129 180.307 374.434 180.141 374.752 179.975L382.164 177.71L414 172.502V58.9755H413.972Z" fill="#3B3832"/>
</svg>
