<?xml version="1.0" encoding="UTF-8"?>
<svg id="Layer_1" xmlns="http://www.w3.org/2000/svg" version="1.1" viewBox="0 0 508 508">
  <!-- Generator: Adobe Illustrator 30.1.0, SVG Export Plug-In . SVG Version: 2.1.1 Build 136)  -->
  <defs>
    <style>
      .st0 {
        fill: #3b3832;
      }

      .st1 {
        fill: #b7dc7d;
      }
    </style>
  </defs>
  <rect class="st1" width="508" height="508" rx="127" ry="127"/>
  <path class="st0" d="M460.97,200.98c-46.52,14.09-138.59,42.25-191.54,60.36,4.46-40.89,19.98-80.74,54.69-112.13,1.5-1.35,1.8-3.59.71-5.29-1.1-1.7-3.26-2.38-5.11-1.59-22,9.21-47.32,20.84-69.63,42.42-24.66,23.87-40.56,55.71-47.34,94.77-25.33-34.86-61.26-56.27-112.2-67.03-1.93-.4-3.87.58-4.65,2.38-.8,1.78-.24,3.88,1.36,5.04,33.07,23.95,52.89,57.45,61.64,88.57-37.34,11.99-69.89,19.38-87.39,23.4-21.13,4.86-18.08,27.02,2.12,27.53,12,.3,42.73,1.7,89.23,1.34-.01.08-.03.16-.04.25h8.45c.01-.11.03-.22.04-.33.33-2.13.6-4.31.79-6.53.01-.17.03-.35.04-.52.08-.94.14-1.89.19-2.86.01-.37.03-.73.05-1.11.03-.77.07-1.53.08-2.32,0-.48.01-.97.03-1.44v-2c0-.58,0-1.15-.03-1.73,0-.57-.03-1.12-.06-1.69-.03-.68-.06-1.37-.08-2.06-.03-.41-.06-.83-.07-1.24-.06-.84-.1-1.67-.17-2.51,0-.07-.01-.15-.01-.22-.94-11.48-3.42-23.65-7.47-35.83-9.31-28.11-26.07-53.69-47.96-73.58,43.2,12.32,73.69,34.17,95.12,67.86.94,1.48,2.71,2.21,4.42,1.82,1.7-.37,2.99-1.78,3.21-3.52.24-1.89.53-3.74.8-5.58,11.94-78.5,58.07-110.21,93.17-126.98-26.92,31.2-39.16,68.22-42.63,105.78-.19,2.04-.35,4.09-.49,6.13-.04.68-.07,1.34-.11,2.02-.08,1.42-.17,2.85-.22,4.28-.04.83-.06,1.66-.08,2.49-.04,1.27-.08,2.55-.11,3.83-.01.87-.03,1.74-.03,2.61,0,1.24-.01,2.47,0,3.72,0,.87,0,1.75.03,2.62.01,1.24.04,2.49.07,3.73.03.86.04,1.7.07,2.55.04,1.29.1,2.56.17,3.83.04.8.07,1.62.12,2.42.07,1.37.17,2.73.26,4.12.04.7.08,1.39.14,2.1.12,1.7.28,3.38.43,5.07.03.37.05.75.1,1.11.07.69.14,1.37.21,2.04l60.1-18.44c2.2-.68,4.52.55,5.2,2.74.68,2.18-.55,4.5-2.74,5.18l-80.02,24.55-8.49,4.59c-13.2,6.89-8.77,26.77,6.12,27.4,42.91,1.85,96.84.55,106.99-.3,60.21-5.12,45.79-29.45,72.34-42.28.33-.16.64-.33.96-.5l7.41-2.27,31.84-5.21v-113.53h-.03Z"/>
</svg>