<?xml version="1.0" encoding="UTF-8"?>
<svg id="Layer_1" xmlns="http://www.w3.org/2000/svg" version="1.1" viewBox="0 0 72 72">
  <!-- Generator: Adobe Illustrator 30.1.0, SVG Export Plug-In . SVG Version: 2.1.1 Build 136)  -->
  <defs>
    <style>
      .st0 {
        fill: #ffce6d;
      }

      .st1 {
        fill: none;
        stroke: #3b3832;
      }
    </style>
  </defs>
  <circle class="st0" cx="36" cy="36" r="35.58"/>
  <path class="st1" d="M36,26.5h-9.5v-9.5c5.24,0,9.5,4.26,9.5,9.5Z"/>
  <path class="st1" d="M55,26.5c0,5.24-4.26,9.5-9.5,9.5v-9.5h9.5Z"/>
  <path class="st1" d="M45.5,36c5.24,0,9.5,4.26,9.5,9.5h-9.5v-9.5Z"/>
  <path class="st1" d="M36,26.5c0-5.24,4.26-9.5,9.5-9.5v9.5h-9.5Z"/>
  <path class="st1" d="M17,45.5c0-5.24,4.26-9.5,9.5-9.5v9.5h-9.5Z"/>
  <path class="st1" d="M17,26.5h9.5v9.5c-5.24,0-9.5-4.26-9.5-9.5Z"/>
  <path class="st1" d="M45.5,55c-5.24,0-9.5-4.26-9.5-9.5h9.5v9.5Z"/>
  <path class="st1" d="M26.5,55v-9.5h9.5c0,5.24-4.26,9.5-9.5,9.5Z"/>
</svg>