<?xml version="1.0" encoding="UTF-8"?>
<svg id="Layer_1" xmlns="http://www.w3.org/2000/svg" version="1.1" viewBox="0 0 72 72">
  <!-- Generator: Adobe Illustrator 30.1.0, SVG Export Plug-In . SVG Version: 2.1.1 Build 136)  -->
  <defs>
    <style>
      .st0 {
        fill: #c892f8;
      }

      .st1 {
        fill: none;
        stroke: #3b3832;
      }
    </style>
  </defs>
  <circle class="st0" cx="36" cy="36" r="35.58"/>
  <path class="st1" d="M35.94,35.95h.11l3.44,18.89h-6.99l3.44-18.89Z"/>
  <path class="st1" d="M35.99,35.93l.09.07-8.32,17.31-5.65-4.11,13.89-13.26h-.01Z"/>
  <path class="st1" d="M36.03,35.93l.03.1-16.91,9.11-2.16-6.65,19.03-2.57h.01Z"/>
  <path class="st1" d="M36.06,35.96l-.03.11-19.03-2.57,2.16-6.65,16.91,9.11h0Z"/>
  <path class="st1" d="M36.07,36.01l-.09.06-13.89-13.26,5.65-4.11,8.32,17.31h.01Z"/>
  <path class="st1" d="M36.05,36.05h-.11l-3.44-18.89h6.99l-3.44,18.89Z"/>
  <path class="st1" d="M36.02,36.07l-.09-.06,8.32-17.31,5.65,4.11-13.89,13.26h0Z"/>
  <path class="st1" d="M35.97,36.07l-.03-.11,16.91-9.11,2.16,6.65-19.03,2.57h-.01Z"/>
  <path class="st1" d="M35.94,36.04l.03-.11,19.03,2.57-2.16,6.65-16.91-9.11h0Z"/>
  <path class="st1" d="M35.93,35.99l.09-.07,13.89,13.26-5.65,4.11-8.32-17.31h0Z"/>
</svg>