<?xml version="1.0" encoding="UTF-8"?>
<svg id="Layer_1" xmlns="http://www.w3.org/2000/svg" version="1.1" viewBox="0 0 72 72">
  <!-- Generator: Adobe Illustrator 30.1.0, SVG Export Plug-In . SVG Version: 2.1.1 Build 136)  -->
  <defs>
    <style>
      .st0 {
        fill: #c892f8;
      }

      .st1 {
        fill: none;
        stroke: #3b3832;
      }
    </style>
  </defs>
  <circle class="st0" cx="36" cy="36" r="35.58"/>
  <path class="st1" d="M55,34.2l-5.32-.92,4.56-2.88-1.38-3.33-5.27,1.19,3.11-4.41-2.55-2.55-4.41,3.11,1.19-5.27-3.33-1.38-2.88,4.56-.92-5.32h-3.61l-.92,5.32-2.88-4.56-3.33,1.38,1.19,5.27-4.41-3.11-2.55,2.55,3.11,4.41-5.27-1.19-1.38,3.33,4.56,2.88-5.32.92v3.61l5.32.92-4.57,2.88,1.38,3.33,5.27-1.19-3.11,4.41,2.55,2.55,4.41-3.11-1.19,5.27,3.33,1.38,2.88-4.56.92,5.32h3.61l.92-5.32,2.88,4.56,3.33-1.38-1.19-5.27,4.41,3.11,2.55-2.55-3.11-4.41,5.27,1.19,1.38-3.33-4.56-2.88,5.32-.92v-3.61h.01Z"/>
</svg>