<?xml version="1.0" encoding="UTF-8"?>
<svg id="Layer_1" xmlns="http://www.w3.org/2000/svg" version="1.1" viewBox="0 0 72 72">
  <!-- Generator: Adobe Illustrator 30.1.0, SVG Export Plug-In . SVG Version: 2.1.1 Build 136)  -->
  <defs>
    <style>
      .st0 {
        fill: #c892f8;
      }

      .st1 {
        fill: none;
        stroke: #3b3832;
      }
    </style>
  </defs>
  <circle class="st0" cx="36" cy="36" r="35.58"/>
  <path class="st1" d="M51.06,37.56l3.94-3.17-4.45-2.39,2.54-4.39-5.01-.61.79-5.01-4.89,1.25-1.07-4.96-4.11,2.94-2.78-4.23-2.78,4.23-4.11-2.94-1.07,4.96-4.89-1.25.79,5.01-5.01.61,2.54,4.39-4.45,2.39,3.94,3.17-3.29,3.84,4.82,1.53-1.69,4.78,5.04-.33.14,5.07,4.58-2.13,1.96,4.68,3.51-3.65,3.51,3.65,1.96-4.68,4.58,2.13.14-5.07,5.04.33-1.69-4.78,4.82-1.53-3.29-3.84h-.06ZM36,49.85c-7.62,0-13.79-6.2-13.79-13.85s6.17-13.85,13.79-13.85,13.79,6.2,13.79,13.85-6.17,13.85-13.79,13.85Z"/>
</svg>