<svg width="24" height="24" viewBox="0 0 24 24" fill="none" xmlns="http://www.w3.org/2000/svg">
<path d="M15.85 13L13.85 11H15.275C15.6583 11 15.946 11.1667 16.138 11.5C16.3293 11.8333 16.3333 12.1667 16.15 12.5L15.85 13ZM13.25 10.4L6.99998 4.15V3C6.99998 2.71667 7.09565 2.479 7.28698 2.287C7.47898 2.09567 7.71665 2 7.99998 2H15.45C15.8167 2 16.1 2.15 16.3 2.45C16.5 2.75 16.525 3.06667 16.375 3.4L13.25 10.4ZM19.1 21.9L13.75 16.6L10.925 21.4C10.7917 21.6333 10.6043 21.7123 10.363 21.637C10.121 21.5623 9.99998 21.4 9.99998 21.15V14H7.99998C7.71665 14 7.47898 13.904 7.28698 13.712C7.09565 13.5207 6.99998 13.2833 6.99998 13V9.85L2.09998 4.9C1.91665 4.71667 1.82065 4.48733 1.81198 4.212C1.80398 3.93733 1.89998 3.7 2.09998 3.5C2.28332 3.31667 2.51665 3.225 2.79998 3.225C3.08332 3.225 3.31665 3.31667 3.49998 3.5L20.5 20.5C20.6833 20.6833 20.7793 20.9127 20.788 21.188C20.796 21.4627 20.7 21.7 20.5 21.9C20.3167 22.0833 20.0833 22.175 19.8 22.175C19.5167 22.175 19.2833 22.0833 19.1 21.9Z" fill="#3B3832"/>
</svg>
