<?xml version="1.0" encoding="UTF-8"?>
<svg id="Layer_1" data-name="Layer 1" xmlns="http://www.w3.org/2000/svg" viewBox="0 0 64 64">
  <defs>
    <style>
      .cls-1 {
        fill: #faf3e5;
      }
    </style>
  </defs>
  <path class="cls-1" d="M32,2.81c-5.2,0-9.07,4.83-7.92,9.91l3.56,15.8c.46,2.04,2.27,3.48,4.36,3.48s3.9-1.45,4.36-3.48l3.56-15.8c1.15-5.08-2.72-9.91-7.92-9.91Z"/>
  <rect class="cls-1" x="27.04" y="35.11" width="9.91" height="9.91" rx="4.96" ry="4.96"/>
  <path class="cls-1" d="M52.86,11.54h-8.56c-.04.7-.13,1.4-.29,2.1l-.51,2.24h6.44c.79,0,1.42.64,1.42,1.42v28.95c0,.79-.64,1.42-1.42,1.42h-9.63c-.84,0-1.64.37-2.18,1.02l-.45.53-4.59,5.48c-.57.68-1.61.68-2.18,0l-4.59-5.48-.45-.53c-.54-.65-1.34-1.02-2.18-1.02h-9.63c-.79,0-1.42-.64-1.42-1.42v-28.95c0-.79.64-1.42,1.42-1.42h6.44l-.51-2.24c-.16-.7-.25-1.4-.29-2.1h-8.56c-1.57,0-2.85,1.28-2.85,2.85v34.78c0,1.57,1.28,2.85,2.85,2.85h11.18c.42,0,.82.19,1.09.51l6.4,7.64c1.14,1.36,3.23,1.36,4.37,0l6.4-7.64c.27-.32.67-.51,1.09-.51h11.18c1.57,0,2.85-1.28,2.85-2.85V14.38c0-1.57-1.28-2.85-2.85-2.85Z"/>
</svg>