<?xml version="1.0" encoding="UTF-8"?>
<svg id="Layer_1" data-name="Layer 1" xmlns="http://www.w3.org/2000/svg" viewBox="0 0 64 64">
  <defs>
    <style>
      .cls-1 {
        fill: #c892f8;
      }
    </style>
  </defs>
  <polygon class="cls-1" points="60.86 29.26 52.78 27.87 59.71 23.49 57.62 18.42 49.61 20.23 54.34 13.53 50.47 9.66 43.77 14.39 45.58 6.38 40.51 4.29 36.13 11.22 34.74 3.14 29.26 3.14 27.87 11.22 23.49 4.29 18.42 6.38 20.23 14.39 13.53 9.66 9.66 13.53 14.39 20.23 6.38 18.42 4.29 23.49 11.22 27.87 3.14 29.26 3.14 34.74 11.22 36.13 4.29 40.51 6.38 45.58 14.39 43.77 9.66 50.47 13.53 54.34 20.23 49.61 18.42 57.62 23.49 59.71 27.87 52.78 29.26 60.86 34.74 60.86 36.13 52.78 40.51 59.71 45.58 57.62 43.77 49.61 50.47 54.34 54.34 50.47 49.61 43.77 57.62 45.58 59.71 40.51 52.78 36.13 60.86 34.74 60.86 29.26"/>
</svg>