<?xml version="1.0" encoding="UTF-8"?>
<svg id="Layer_1" xmlns="http://www.w3.org/2000/svg" version="1.1" viewBox="0 0 64 64">
  <!-- Generator: Adobe Illustrator 30.1.0, SVG Export Plug-In . SVG Version: 2.1.1 Build 136)  -->
  <defs>
    <style>
      .st0 {
        fill: #ffce6d;
      }
    </style>
  </defs>
  <path class="st0" d="M32,18.75h-13.25V5.5c7.31,0,13.25,5.94,13.25,13.25Z"/>
  <path class="st0" d="M58.5,18.75h0c0,7.31-5.94,13.25-13.25,13.25v-13.25h13.25Z"/>
  <path class="st0" d="M45.25,32h0c7.31,0,13.25,5.94,13.25,13.25h-13.25v-13.25h0Z"/>
  <path class="st0" d="M32,18.75h0c0-7.31,5.94-13.25,13.25-13.25v13.25h-13.25Z"/>
  <path class="st0" d="M5.5,45.25h0c0-7.31,5.94-13.25,13.25-13.25v13.25H5.5Z"/>
  <path class="st0" d="M5.5,18.75h13.25v13.25h0c-7.31,0-13.25-5.94-13.25-13.25h0Z"/>
  <path class="st0" d="M45.25,58.49h0c-7.31,0-13.25-5.94-13.25-13.25h13.25v13.25h0Z"/>
  <path class="st0" d="M18.75,58.5v-13.25h13.25c0,7.31-5.94,13.25-13.25,13.25h0Z"/>
</svg>