<?xml version="1.0" encoding="UTF-8"?>
<svg id="Layer_1" data-name="Layer 1" xmlns="http://www.w3.org/2000/svg" viewBox="0 0 64 64">
  <defs>
    <style>
      .cls-1 {
        fill: #3b3832;
      }
    </style>
  </defs>
  <path class="cls-1" d="M32,5.5h0v13.25h-13.25c0-7.31,5.94-13.25,13.25-13.25Z" transform="translate(37.5 -13.25) rotate(90)"/>
  <path class="cls-1" d="M45.25,18.75h0c7.31,0,13.25,5.94,13.25,13.25h-13.25v-13.25h0Z" transform="translate(77.25 -26.5) rotate(90)"/>
  <path class="cls-1" d="M45.25,32h0c7.31,0,13.25,5.94,13.25,13.25h-13.25v-13.25h0Z"/>
  <path class="cls-1" d="M32,5.5h0c7.31,0,13.25,5.94,13.25,13.25h-13.25V5.5h0Z" transform="translate(26.5 50.75) rotate(-90)"/>
  <path class="cls-1" d="M5.5,32h0c7.31,0,13.25,5.94,13.25,13.25H5.5v-13.25h0Z" transform="translate(-26.5 50.75) rotate(-90)"/>
  <path class="cls-1" d="M5.5,18.75h13.25v13.25h0c-7.31,0-13.25-5.94-13.25-13.25h0Z"/>
  <path class="cls-1" d="M32,45.25h0c7.31,0,13.25,5.94,13.25,13.25h-13.25v-13.25h0Z" transform="translate(77.25 103.74) rotate(180)"/>
  <path class="cls-1" d="M18.75,45.25h13.25v13.25h0c-7.31,0-13.25-5.94-13.25-13.25h0Z" transform="translate(-26.5 77.25) rotate(-90)"/>
</svg>