<?xml version="1.0" encoding="UTF-8"?>
<svg id="Layer_1" xmlns="http://www.w3.org/2000/svg" version="1.1" viewBox="0 0 64 64">
  <!-- Generator: Adobe Illustrator 30.1.0, SVG Export Plug-In . SVG Version: 2.1.1 Build 136)  -->
  <defs>
    <style>
      .st0 {
        fill: #b7dc7d;
        stroke: #3b3832;
        stroke-miterlimit: 10;
      }
    </style>
  </defs>
  <path class="st0" d="M57.63,32h0c0,14.15-11.49,25.63-25.63,25.63h0c0-14.15,11.49-25.63,25.63-25.63h0Z"/>
  <path class="st0" d="M6.37,32h0c14.15,0,25.63,11.49,25.63,25.63h0c-14.15,0-25.63-11.49-25.63-25.63Z"/>
  <path class="st0" d="M32,32h0c-14.15,0-25.63-11.49-25.63-25.63h0c14.15,0,25.63,11.49,25.63,25.63Z"/>
  <path class="st0" d="M32,32h0c0-14.15,11.49-25.63,25.63-25.63h0c0,14.15-11.49,25.63-25.63,25.63h0Z"/>
</svg>