<?xml version="1.0" encoding="UTF-8"?>
<svg id="Layer_1" xmlns="http://www.w3.org/2000/svg" version="1.1" viewBox="0 0 64 64">
  <!-- Generator: Adobe Illustrator 30.1.0, SVG Export Plug-In . SVG Version: 2.1.1 Build 136)  -->
  <defs>
    <style>
      .st0 {
        fill: #c892f8;
        stroke: #3b3832;
        stroke-miterlimit: 10;
      }
    </style>
  </defs>
  <path class="st0" d="M54.97,34.38l6.01-4.81-6.8-3.63,3.87-6.66-7.65-.93,1.2-7.61-7.47,1.9-1.63-7.53-6.28,4.47-4.24-6.43-4.24,6.43-6.28-4.47-1.63,7.53-7.47-1.9,1.2,7.61-7.65.93,3.87,6.66-6.8,3.63,6.01,4.81-5.03,5.84,7.35,2.32-2.58,7.26,7.69-.49.22,7.7,6.99-3.24,2.98,7.1,5.35-5.54,5.35,5.54,2.98-7.1,6.99,3.24.22-7.7,7.69.49-2.58-7.26,7.35-2.32-5.03-5.84h.04ZM32,53.04c-11.62,0-21.04-9.42-21.04-21.04s9.42-21.04,21.04-21.04,21.04,9.42,21.04,21.04-9.42,21.04-21.04,21.04Z"/>
</svg>