<?xml version="1.0" encoding="UTF-8"?>
<svg id="Layer_1" xmlns="http://www.w3.org/2000/svg" version="1.1" viewBox="0 0 64 64">
  <!-- Generator: Adobe Illustrator 30.1.0, SVG Export Plug-In . SVG Version: 2.1.1 Build 136)  -->
  <defs>
    <style>
      .st0 {
        fill: #c892f8;
        stroke: #3b3832;
        stroke-miterlimit: 10;
      }
    </style>
  </defs>
  <g id="_Radial_Repeat_">
    <polygon class="st0" points="31.92 31.92 32.08 31.92 37.35 60.86 26.65 60.86 31.92 31.92"/>
  </g>
  <g id="_Radial_Repeat_-2">
    <polygon class="st0" points="31.98 31.89 32.11 31.99 19.37 58.5 10.71 52.2 31.98 31.89"/>
  </g>
  <g id="_Radial_Repeat_-3">
    <polygon class="st0" points="32.05 31.9 32.1 32.06 6.21 46.01 2.9 35.83 32.05 31.9"/>
  </g>
  <g id="_Radial_Repeat_-4">
    <polygon class="st0" points="32.1 31.94 32.05 32.1 2.9 28.17 6.21 17.99 32.1 31.94"/>
  </g>
  <g id="_Radial_Repeat_-5">
    <polygon class="st0" points="32.11 32.01 31.98 32.11 10.71 11.8 19.37 5.5 32.11 32.01"/>
  </g>
  <g id="_Radial_Repeat_-6">
    <polygon class="st0" points="32.08 32.08 31.92 32.08 26.65 3.14 37.35 3.14 32.08 32.08"/>
  </g>
  <g id="_Radial_Repeat_-7">
    <polygon class="st0" points="32.02 32.11 31.89 32.01 44.63 5.5 53.29 11.8 32.02 32.11"/>
  </g>
  <g id="_Radial_Repeat_-8">
    <polygon class="st0" points="31.95 32.1 31.9 31.94 57.79 17.99 61.1 28.17 31.95 32.1"/>
  </g>
  <g id="_Radial_Repeat_-9">
    <polygon class="st0" points="31.9 32.06 31.95 31.9 61.1 35.83 57.79 46.01 31.9 32.06"/>
  </g>
  <g id="_Radial_Repeat_-10">
    <polygon class="st0" points="31.89 31.99 32.02 31.89 53.29 52.2 44.63 58.5 31.89 31.99"/>
  </g>
</svg>