<?xml version="1.0" encoding="UTF-8"?>
<svg id="Layer_1" xmlns="http://www.w3.org/2000/svg" version="1.1" viewBox="0 0 64 64">
  <!-- Generator: Adobe Illustrator 30.1.0, SVG Export Plug-In . SVG Version: 2.1.1 Build 136)  -->
  <defs>
    <style>
      .st0 {
        fill: #ffce6d;
        stroke: #3b3832;
        stroke-miterlimit: 10;
      }
    </style>
  </defs>
  <path class="st0" d="M18.75,18.75h13.25c0-7.32-5.93-13.25-13.25-13.25s-13.25,5.93-13.25,13.25,5.93,13.25,13.25,13.25v-13.25Z"/>
  <path class="st0" d="M45.25,5.5c-7.32,0-13.25,5.93-13.25,13.25h13.25v13.25c7.32,0,13.25-5.93,13.25-13.25s-5.93-13.25-13.25-13.25Z"/>
  <path class="st0" d="M45.25,32v13.25h-13.25c0,7.32,5.93,13.25,13.25,13.25s13.25-5.93,13.25-13.25-5.93-13.25-13.25-13.25Z"/>
  <path class="st0" d="M18.75,32c-7.32,0-13.25,5.93-13.25,13.25s5.93,13.25,13.25,13.25,13.25-5.93,13.25-13.25h-13.25v-13.25Z"/>
</svg>