<?xml version="1.0" encoding="UTF-8"?>
<svg id="Layer_1" data-name="Layer 1" xmlns="http://www.w3.org/2000/svg" viewBox="0 0 64 64">
  <defs>
    <style>
      .cls-1 {
        fill: none;
        stroke: #3b3832;
        stroke-miterlimit: 10;
      }
    </style>
  </defs>
  <path class="cls-1" d="M18.75,18.75h13.25c0-7.32-5.93-13.25-13.25-13.25s-13.25,5.93-13.25,13.25,5.93,13.25,13.25,13.25v-13.25Z"/>
  <path class="cls-1" d="M45.25,5.5c-7.32,0-13.25,5.93-13.25,13.25h13.25v13.25c7.32,0,13.25-5.93,13.25-13.25s-5.93-13.25-13.25-13.25Z"/>
  <path class="cls-1" d="M45.25,32v13.25h-13.25c0,7.32,5.93,13.25,13.25,13.25s13.25-5.93,13.25-13.25-5.93-13.25-13.25-13.25Z"/>
  <path class="cls-1" d="M18.75,32c-7.32,0-13.25,5.93-13.25,13.25s5.93,13.25,13.25,13.25,13.25-5.93,13.25-13.25h-13.25v-13.25Z"/>
</svg>