<?xml version="1.0" encoding="UTF-8"?>
<svg id="Layer_1" xmlns="http://www.w3.org/2000/svg" version="1.1" viewBox="0 0 64 64">
  <!-- Generator: Adobe Illustrator 30.1.0, SVG Export Plug-In . SVG Version: 2.1.1 Build 136)  -->
  <defs>
    <style>
      .st0 {
        fill: #ffce6d;
        stroke: #3b3832;
        stroke-miterlimit: 10;
      }
    </style>
  </defs>
  <path class="st0" d="M23.17,58.5c9.76,0,17.66-7.91,17.66-17.66H5.5c0,9.76,7.91,17.66,17.66,17.66h.01Z"/>
  <g>
    <path class="st0" d="M40.83,5.5c-9.76,0-17.66,7.91-17.66,17.66h35.33c0-9.76-7.91-17.66-17.66-17.66h-.01Z"/>
    <path class="st0" d="M5.5,23.17c0,9.76,7.91,17.66,17.66,17.66V5.5c-9.76,0-17.66,7.91-17.66,17.66h0Z"/>
    <path class="st0" d="M58.5,40.83c0-9.76-7.91-17.66-17.66-17.66v35.33c9.76,0,17.66-7.91,17.66-17.66h0Z"/>
  </g>
</svg>