<?xml version="1.0" encoding="UTF-8"?>
<svg id="Layer_1" data-name="Layer 1" xmlns="http://www.w3.org/2000/svg" viewBox="0 0 64 64">
  <defs>
    <style>
      .cls-1 {
        fill: #ffce6d;
      }
    </style>
  </defs>
  <path class="cls-1" d="M23.17,58.5c9.76,0,17.66-7.91,17.66-17.66H5.5c0,9.76,7.91,17.66,17.66,17.66Z"/>
  <g>
    <path class="cls-1" d="M40.83,5.5c-9.76,0-17.66,7.91-17.66,17.66h35.33c0-9.76-7.91-17.66-17.66-17.66Z"/>
    <path class="cls-1" d="M5.5,23.17c0,9.76,7.91,17.66,17.66,17.66V5.5c-9.76,0-17.66,7.91-17.66,17.66Z"/>
    <path class="cls-1" d="M58.5,40.83c0-9.76-7.91-17.66-17.66-17.66v35.33c9.76,0,17.66-7.91,17.66-17.66Z"/>
  </g>
</svg>